<?xml version="1.0" standalone="no"?>
<!DOCTYPE svg PUBLIC "-//W3C//DTD SVG 20010904//EN"
 "http://www.w3.org/TR/2001/REC-SVG-20010904/DTD/svg10.dtd">
<svg version="1.0" xmlns="http://www.w3.org/2000/svg"
 width="700.000000pt" height="700.000000pt" viewBox="0 0 700.000000 700.000000"
 preserveAspectRatio="xMidYMid meet">
<metadata>
Created by potrace 1.11, written by Peter Selinger 2001-2013
</metadata>
<g transform="translate(0.000000,700.000000) scale(0.100000,-0.100000)"
fill="#000000" stroke="none">
<path d="M2647 6654 c-1 -1 -42 -4 -92 -8 -49 -3 -103 -7 -120 -10 -16 -2 -57
-7 -90 -11 -62 -7 -104 -12 -165 -21 -19 -3 -53 -7 -75 -9 -22 -3 -52 -8 -67
-11 -15 -3 -39 -7 -55 -9 -105 -14 -346 -63 -518 -107 -678 -171 -1150 -453
-1351 -805 -41 -72 -90 -199 -100 -261 -8 -45 -11 -205 -5 -234 l6 -27 130 66
c72 36 171 86 220 112 50 25 95 48 100 50 6 2 -48 -56 -120 -128 -71 -73 -131
-134 -133 -136 -2 -2 14 -11 35 -21 39 -19 161 -134 223 -212 19 -24 40 -49
45 -55 58 -65 292 -402 360 -521 16 -27 42 -97 58 -155 15 -58 37 -137 48
-176 11 -38 24 -83 28 -100 5 -16 37 -124 71 -240 34 -115 66 -223 70 -240 22
-79 89 -305 94 -313 3 -5 7 -19 9 -33 3 -13 17 -63 31 -111 41 -134 139 -274
299 -430 76 -73 114 -103 312 -243 133 -93 220 -187 358 -389 114 -166 200
-243 316 -281 131 -43 344 16 717 197 116 56 166 82 340 179 l51 28 -66 -201
-67 -201 -144 -74 c-80 -41 -206 -106 -280 -145 -74 -39 -189 -99 -255 -133
-66 -34 -174 -91 -240 -125 -235 -123 -481 -251 -572 -297 -51 -26 -90 -49
-88 -51 2 -2 43 -5 92 -7 156 -7 376 -16 463 -20 47 -3 144 -7 215 -10 72 -2
182 -7 245 -10 195 -8 481 -21 705 -30 72 -3 175 -8 230 -10 55 -3 161 -7 235
-10 74 -2 196 -7 270 -10 152 -6 356 -13 570 -20 167 -6 335 -12 535 -20 428
-16 873 -21 925 -10 93 19 213 138 322 320 56 93 143 272 172 353 68 192 71
292 11 420 -127 269 -165 312 -438 510 -197 142 -250 178 -322 214 -124 63
-233 84 -280 54 -28 -18 -24 -23 -64 79 -33 81 -134 281 -187 367 -162 264
-203 329 -251 396 -113 157 -241 301 -356 397 -26 23 -50 52 -53 65 -32 153
-44 302 -30 380 3 19 8 49 11 65 7 36 7 299 1 335 -3 14 -7 52 -11 85 -3 33
-8 67 -10 75 -2 8 -6 31 -9 51 -8 55 -43 196 -70 284 -144 472 -409 865 -776
1152 -334 260 -783 415 -1275 439 -60 3 -127 7 -148 8 -20 1 -38 1 -40 0z"/>
</g>
</svg>
