<?xml version="1.0" encoding="utf-8"?>
<!-- Generator: Adobe Illustrator 22.1.0, SVG Export Plug-In . SVG Version: 6.00 Build 0)  -->
<svg version="1.1" id="Layer_1" xmlns="http://www.w3.org/2000/svg" xmlns:xlink="http://www.w3.org/1999/xlink" x="0px" y="0px"
	 viewBox="0 0 260 260" style="enable-background:new 0 0 260 260;" xml:space="preserve">
<style type="text/css">
	.st0{fill:#CEB47A;}
	.st1{fill:#282827;}
	.st2{fill:#A3906A;}
	.st3{fill:#F7F7F7;}
	.st4{fill:#EDCC2E;}
	.st5{fill:#D8B72B;}
	.st6{fill:none;stroke:#161616;stroke-width:11;stroke-linecap:round;stroke-linejoin:round;stroke-miterlimit:10;}
	.st7{fill:none;}
	.st8{fill:none;stroke:#000000;stroke-linecap:round;stroke-linejoin:round;stroke-miterlimit:10;}
</style>
<g id="Layer_2">
	<path class="st0" d="M184.7,112.3c0-41.7-31-74.8-72.7-74.8c-21.4,0-38.8-4.3-52.5,10.1l-8.6,5.8c0,0-28.8,20.2-14.4,59
		c0,0,0,0,0,0c0,0.2,0,0.4,0,0.7l12,40.8l0,0c0,0,5.7,12.3,20.6,21.4c0.1,0,0.1,0.1,0.2,0.1c0.6,0.4,1.2,0.8,1.8,1.2
		c12.9,9.1,13.5,22.3,25.9,25c8.9,2,34.1-12,49.1-21c4.1-2,7.9-4.4,11.5-7.2c0,0,0.1,0,0.1,0l0,0c9.5-7.2,28.5-48.5,28.6-49.5
		C186.5,120.8,184.7,115.4,184.7,112.3z"/>
	<path class="st1" d="M140.1,21.6c38.9,19.2,48.4,64.2,44.6,84.9c-0.3,1.7-3-13.1-3.3-14.7c-2.1-10.1-6.3-21.9-14.9-22.7
		c-15.4-1.4-9.1,27.3-9.1,27.3l-8.6,2.9c0,0-1.4-13-2.9-17.3s-11.5-13-11.5-13s1.4-25.9-61.9-7.2c0,0-42.9,20.2-38.9,40.3
		c0,0-17.3-28.8-25.9-31.7l10.1-10.1L0.5,69.1c0,0-13-46.1,95-56.1C95.5,13,119.3,11.3,140.1,21.6z"/>
	<path class="st2" d="M81.1,102.2c0,0-11.3-13.5,4.3-18.7c17.3-5.8,30.2-7.2,30.2-7.2S78.2,95,81.1,102.2z"/>
	<path class="st2" d="M75.3,139.6c0,0-13,0-11.5-5.8c1.4-5.8-2.9,4.3,0,7.2S75.3,139.6,75.3,139.6z"/>
	<path class="st2" d="M63.8,108c0,0,2-8.5-6.9-7.1c-8.9,1.4-20.4,7.1-20.4,7.1S63.6,104.5,63.8,108z"/>
	<g>
		<path class="st3" d="M111.8,103.2L91.2,109c-4.2,1.2-8.7-1.3-9.9-5.5l-1.9-6.8c-1.2-4.2,1.3-8.7,5.5-9.9l20.6-5.8
			c4.2-1.2,8.7,1.3,9.9,5.5l1.9,6.8C118.5,97.6,116,102,111.8,103.2z"/>
		<g>
			<path class="st1" d="M110.6,100.7c-0.1-1.6-0.6-3.1-1.4-4.4c-1.2,1.3-2.9,2.2-4.8,2.3c-3.8,0.2-7.1-2.6-7.3-6.3
				c0-0.2,0-0.3,0-0.5c-4.4,1.4-7.6,5.4-7.3,10.1c0.1,2.6,1.4,5,3.2,6.7l17.4-5.2C110.6,102.4,110.7,101.6,110.6,100.7z M93.1,105.8
				c-1.2,0.1-2.2-0.8-2.3-2c-0.1-1.2,0.9-2.1,2.1-2.2c1.2-0.1,2.2,0.8,2.3,2C95.2,104.8,94.3,105.7,93.1,105.8z"/>
		</g>
	</g>
	<g>
		<path class="st3" d="M61.4,117.7l-14.7,4.1c-3,0.8-6.2-0.9-7-4l-1.4-4.8c-0.8-3,0.9-6.2,4-7l14.7-4.1c3-0.8,6.2,0.9,7,4l1.4,4.8
			C66.2,113.7,64.4,116.8,61.4,117.7z"/>
		<g>
			<path class="st1" d="M60.6,115.9c-0.1-1.2-0.4-2.2-1-3.2c-0.9,0.9-2.1,1.5-3.5,1.6c-2.7,0.2-5.1-1.9-5.2-4.5c0-0.1,0-0.2,0-0.4
				c-3.2,1-5.4,3.9-5.2,7.2c0.1,1.9,1,3.6,2.3,4.8l12.4-3.7C60.6,117.1,60.6,116.5,60.6,115.9z M48.1,119.5c-0.9,0-1.6-0.6-1.6-1.4
				c0-0.8,0.6-1.5,1.5-1.6s1.6,0.6,1.6,1.4C49.6,118.8,48.9,119.5,48.1,119.5z"/>
		</g>
	</g>
	<g>
		<path class="st1" d="M109.2,65l-22.9,8.2l-9.6,5.3l-3.9,4.9c-1,1.3-0.8,3.2,0.5,4.2c1.3,1,3.2,0.8,4.2-0.5l4.9-6.2l28.9-10.4
			c1.5-0.6,2.3-2.3,1.8-3.8C112.5,65.3,110.8,64.4,109.2,65z"/>
		<path class="st1" d="M76.7,78.5l0.1-0.1"/>
		<path class="st1" d="M76.8,78.4l-0.1,0.1l9.6-5.3C86.3,73.2,84.3,74,76.8,78.4z"/>
	</g>
	<g>
		<path class="st1" d="M40.9,95.4l10.6-3.8l5.2-0.5l3.2,1.5c0.8,0.4,1.5,1.6,1.5,2.7c0,1.1-0.7,1.7-1.5,1.3l-4-1.9l-13.4,4.8
			c-0.7,0.3-1.6-0.5-2.1-1.6C39.9,96.8,40.2,95.7,40.9,95.4z"/>
		<path class="st1" d="M56.7,91.1L56.7,91.1"/>
		<path class="st1" d="M56.6,91.1L56.6,91.1l-5.1,0.5C51.5,91.6,52.4,91.2,56.6,91.1z"/>
	</g>
	<path class="st0" d="M130,207.3c0,0,95,5.8,92.1-24.5c-2.9-30.2-36-61.9-36-61.9l-48.9,63.9L130,207.3z"/>
	<path class="st4" d="M72.5,231.8l57.6-30c0,0,87.1-25.1,88.9-32.8c1.8-7.7,45,21.1,40.7,36.9c-4.3,15.8-13,30.2-20.2,31.7
		S72.5,231.8,72.5,231.8z"/>
	<path class="st2" d="M170.3,76.3c-10.1-8.6-8.6,13-8.6,13L170.3,76.3z"/>
	<path class="st2" d="M161.7,95l8.6-2.9v10.1c0,0,2.9,5.8,5.8-2.9c2.9-8.6-5.8-23-5.8-23l-8.6,13V95z"/>
	<path class="st2" d="M137.2,184.3c0,0,40.1-39.2,40.3-50.4c0.2-11.1-8.6,56.1-8.6,56.1l-37.4,11.5L137.2,184.3z"/>
	<path class="st5" d="M212.8,174.5c0,0,36.4,24.6,33.7,58.2c0,0,19.7-25.6,11.4-36.3c0,0-2.6-9.2-11.2-15s-18.8-15.6-26.7-13.6
		C219.9,167.8,212.1,173.4,212.8,174.5z"/>
	<path class="st2" d="M184.7,119.5v5.8c0,0,32.1,39.7,30.5,43.6l2.3-1.4C217.5,167.5,204.9,133.9,184.7,119.5z"/>
	<path class="st6" d="M32.9,81.4C52.7,51.4,128.4,30,142.3,65.5"/>
	<rect class="st7" width="260" height="260"/>
	<path class="st8" d="M82,158c0,0,35-6,40-21"/>
	<path class="st2" d="M87.5,164.5l13-4C100.5,160.5,104.5,176.5,87.5,164.5z"/>
</g>
</svg>
